# xmcd
#
# Track frame offsets: 
#        150
#        17534
#        33901
#        49795
#        73532
#        92198
#        111860
#        130624
#        151812
#        178809
#        192063
#        208193
#        223613
#        252101
#        271283
#
# Disc length: 3960 seconds
#
# Revision: 0
# Processed by: cddbd v1.5.2PL0 Copyright (c) Steve Scherf et al.
# Submitted via: ExactAudioCopy v1.3
#
DISCID=cc0f760f
DTITLE=Nande and The Big Difference - Nande and The Big Difference
DYEAR=2002
DGENRE=Blues, Swing
TTITLE0=One Bad Stud
TTITLE1=I Can't Stop It
TTITLE2=What's Wrong
TTITLE3=Why
TTITLE4=Swing Machine
TTITLE5=Good Understanding
TTITLE6=Don't Count Your Chickens
TTITLE7=She's a Good 'un
TTITLE8=Taste of my Own Medicine
TTITLE9=Okie Dokie Stomp
TTITLE10=Duckin' and Divin'
TTITLE11=Don't Try
TTITLE12=Kansas City
TTITLE13=Kiss Your Feet
TTITLE14=Good Rockin' Tonight
EXTD=
EXTT0=
EXTT1=
EXTT2=
EXTT3=
EXTT4=
EXTT5=
EXTT6=
EXTT7=
EXTT8=
EXTT9=
EXTT10=
EXTT11=
EXTT12=
EXTT13=
EXTT14=
PLAYORDER=
